<?xml version="1.0" encoding="utf-8"?>
<!-- Generator: Adobe Illustrator 18.0.0, SVG Export Plug-In . SVG Version: 6.00 Build 0)  -->
<!DOCTYPE svg PUBLIC "-//W3C//DTD SVG 1.1//EN" "http://www.w3.org/Graphics/SVG/1.1/DTD/svg11.dtd">
<svg version="1.1" id="Layer_1" xmlns="http://www.w3.org/2000/svg" xmlns:xlink="http://www.w3.org/1999/xlink" x="0px" y="0px"
	 viewBox="-16 64 350 350" enable-background="new -16 64 350 350" xml:space="preserve">
<rect x="33.4" y="118.3" fill="#FFFFFF" width="249.9" height="245"/>
<g>
	<polygon fill="#424242" points="102.8,110 102.8,120.2 40.2,120.2 40.2,182.8 30,182.8 30,110 	"/>
	<path fill="#424242" d="M288,294.8V368h-73.2l0.4-0.3v-8.6c0,0-0.5-1.4-0.4-1.4h63v-63l1.4,0.4h8.6
		C287.7,295.2,288,294.7,288,294.8z"/>
	<path fill="#424242" d="M288,110v72.8h-10.2v-62.6h-63l0.4-1.4v-8.6c0,0-0.5-0.3-0.4-0.3H288z"/>
	<path fill="#424242" d="M102.8,357.8V368H30v-73.2l0.3,0.4h8.6c0,0,1.4-0.5,1.4-0.4v63H102.8z"/>
</g>
<polygon fill="#981B27" points="217,234.4 164.6,234.4 164.6,182 154.4,182 154.4,234.4 102,234.4 102,244.6 154.4,244.6 154.4,297 
	164.6,297 164.6,244.6 217,244.6 "/>
</svg>
