<?xml version="1.0" encoding="utf-8"?>
<!-- Generator: Adobe Illustrator 18.0.0, SVG Export Plug-In . SVG Version: 6.00 Build 0)  -->
<!DOCTYPE svg PUBLIC "-//W3C//DTD SVG 1.1//EN" "http://www.w3.org/Graphics/SVG/1.1/DTD/svg11.dtd">
<svg version="1.1" id="Layer_1" xmlns="http://www.w3.org/2000/svg" xmlns:xlink="http://www.w3.org/1999/xlink" x="0px" y="0px"
	 viewBox="0 0 250 250" enable-background="new 0 0 250 250" xml:space="preserve">
<g>
	<rect x="26.1" y="29.9" fill="#FFFFFF" width="195.2" height="191.4"/>
	<g>
		<polygon fill="#424242" points="81,24 81,32 32,32 32,81 24,81 24,24 		"/>
		<path fill="#424242" d="M226,168.7V226h-57.3c0,0,0.3-0.2,0.3-0.2v-6.7c0,0-0.4-1.1-0.3-1.1H218v-49.3c0,0,1.1,0.3,1.1,0.3h6.7
			C225.8,169,226,168.6,226,168.7z"/>
		<path fill="#424242" d="M226,24v57h-8V32h-49.3c0,0,0.3-1.1,0.3-1.1v-6.7c0,0-0.4-0.2-0.3-0.2H226z"/>
		<path fill="#424242" d="M81,218v8H24v-57.3c0,0,0.2,0.3,0.2,0.3h6.7c0,0,1.1-0.4,1.1-0.3V218H81z"/>
		<polygon fill="#981B27" points="170,121 129,121 129,80 121,80 121,121 80,121 80,129 121,129 121,170 129,170 129,129 170,129 		
			"/>
	</g>
</g>
</svg>
