<?xml version="1.0" encoding="utf-8"?>
<!-- Generator: Adobe Illustrator 18.0.0, SVG Export Plug-In . SVG Version: 6.00 Build 0)  -->
<!DOCTYPE svg PUBLIC "-//W3C//DTD SVG 1.1//EN" "http://www.w3.org/Graphics/SVG/1.1/DTD/svg11.dtd">
<svg version="1.1" id="Layer_1" xmlns="http://www.w3.org/2000/svg" xmlns:xlink="http://www.w3.org/1999/xlink" x="0px" y="0px"
	 viewBox="0 0 250 250" enable-background="new 0 0 250 250" xml:space="preserve">
<g>
	<g>
		<circle fill="#FFFFFF" cx="123.9" cy="91.7" r="49.4"/>
	</g>
	<g>
		<g>
			<path fill="#FFFFFF" d="M176.5,144.3l2.1-30l19.7-22.7L178.6,69l-2.1-30l-30-2.1l-22.7-19.7l-22.7,19.7l-30,2.1l-2.1,30
				L49.4,91.6l19.7,22.7l2.1,30l30,2.1l22.7,19.7l22.7-19.7L176.5,144.3z M123.5,133c-23,0-41.7-18.7-41.7-41.7s18.7-41.7,41.7-41.7
				s41.7,18.7,41.7,41.7C165.2,114.3,146.5,133,123.5,133z"/>
			<path fill="#424242" d="M123.9,170.7l-24.1-20.9L68,147.5l-2.2-31.8L44.8,91.6l20.9-24.1L68,35.7l31.8-2.2l24.1-21l24.1,21
				l31.8,2.2l2.2,31.8l21,24.1l-21,24.1l-2.2,31.8l-31.8,2.2L123.9,170.7z M74.4,141.1l28.2,1.9l21.3,18.5l21.3-18.5l28.1-1.9
				l2-28.2l18.5-21.3l-18.5-21.3l-2-28.2l-28.2-2l-21.3-18.5l-21.3,18.5l-28.2,2l-2,28.2L53.9,91.6l18.5,21.3L74.4,141.1z
				 M123.5,136.4c-24.9,0-45.2-20.3-45.2-45.1c0-24.9,20.3-45.2,45.2-45.2c24.9,0,45.2,20.3,45.2,45.2
				C168.6,116.1,148.4,136.4,123.5,136.4z M123.5,53c-21.1,0-38.3,17.2-38.3,38.3c0,21.1,17.2,38.3,38.3,38.3
				c21.1,0,38.3-17.2,38.3-38.3C161.7,70.1,144.6,53,123.5,53z"/>
		</g>
	</g>
	<g>
		<path fill="#981B27" d="M130.4,109.8h-7.7V88.7l0.1-3.5l0.1-3.8c-1.3,1.3-2.2,2.1-2.7,2.5l-4.2,3.4l-3.7-4.6l11.8-9.4h6.3V109.8z"
			/>
	</g>
	<g>
		<path fill="#424242" d="M153.4,237.4l-21-59.6l19.7-17.1l37.3-2.6l20.9,59.2L174,205.3L153.4,237.4z M140.4,179.9l14.8,41.9
			l15.9-24.8l28,9.3l-14.5-41l-29.8,2.1L140.4,179.9z"/>
	</g>
	<g>
		<path fill="#424242" d="M96.6,237.4L76,205.3l-36.2,12.1l20.9-59.2l37.3,2.6l19.7,17.1L96.6,237.4z M78.9,197.1l15.9,24.8
			l14.8-41.9l-14.4-12.5l-29.8-2.1l-14.5,41L78.9,197.1z"/>
	</g>
</g>
</svg>
