<?xml version="1.0" encoding="utf-8"?>
<!-- Generator: Adobe Illustrator 18.0.0, SVG Export Plug-In . SVG Version: 6.00 Build 0)  -->
<!DOCTYPE svg PUBLIC "-//W3C//DTD SVG 1.1//EN" "http://www.w3.org/Graphics/SVG/1.1/DTD/svg11.dtd">
<svg version="1.1" id="Layer_1" xmlns="http://www.w3.org/2000/svg" xmlns:xlink="http://www.w3.org/1999/xlink" x="0px" y="0px"
	 viewBox="0 0 250 250" enable-background="new 0 0 250 250" xml:space="preserve">
<g>
	<rect x="17.7" y="33.5" fill="#FFFFFF" width="209.3" height="156.1"/>
	<g>
		<g>
			<path fill="#424242" d="M234,30H128V17h-9v13H14v165h70.3l-23.1,36.3l7.8,5.2L95.5,195h58.8l26.5,41.6l7.8-5.5L165.6,195H234V30z
				 M225.9,186H23V39h202v146.9L225.9,186z"/>
			<polygon fill="#981B27" points="115.5,100.4 131.4,146.3 189.3,93.3 186.1,133.3 195,134.2 199.7,77.8 147.8,72.9 146.8,82.1 
				183.5,85.8 135.1,129.9 119.2,84.6 51.9,143.9 57.9,151.1 			"/>
		</g>
	</g>
</g>
</svg>
