<?xml version="1.0" encoding="utf-8"?>
<!-- Generator: Adobe Illustrator 18.0.0, SVG Export Plug-In . SVG Version: 6.00 Build 0)  -->
<!DOCTYPE svg PUBLIC "-//W3C//DTD SVG 1.1//EN" "http://www.w3.org/Graphics/SVG/1.1/DTD/svg11.dtd">
<svg version="1.1" id="Layer_1" xmlns="http://www.w3.org/2000/svg" xmlns:xlink="http://www.w3.org/1999/xlink" x="0px" y="0px"
	 viewBox="0 0 250 250" enable-background="new 0 0 250 250" xml:space="preserve">
<g>
	<g>
		<rect x="52.8" y="21.8" fill="#FFFFFF" width="174.4" height="208.8"/>
	</g>
	<g>
		<g>
			
				<rect x="78.9" y="67.2" transform="matrix(0.7071 0.7071 -0.7071 0.7071 76.3865 -42.3042)" fill="#981B27" width="20.8" height="7.6"/>
		</g>
		<g>
			
				<rect x="100" y="53.9" transform="matrix(0.7071 0.7071 -0.7071 0.7071 78.3466 -53.5955)" fill="#981B27" width="7.6" height="27.7"/>
		</g>
		<g>
			
				<rect x="78.9" y="110.3" transform="matrix(0.7071 0.7071 -0.7071 0.7071 106.8174 -29.6992)" fill="#981B27" width="20.8" height="7.6"/>
		</g>
		<g>
			
				<rect x="100" y="96.9" transform="matrix(0.7071 0.7071 -0.7071 0.7071 108.7776 -40.9906)" fill="#981B27" width="7.6" height="27.7"/>
		</g>
		<g>
			<rect x="89" y="146" fill="#424242" width="14" height="14"/>
		</g>
		<g>
			<rect x="138" y="64" fill="#424242" width="64" height="7"/>
		</g>
		<g>
			<rect x="138" y="108" fill="#424242" width="64" height="7"/>
		</g>
		<g>
			<rect x="138" y="148" fill="#424242" width="64" height="8"/>
		</g>
		<g>
			<rect x="89" y="182" fill="#424242" width="14" height="13"/>
		</g>
		<g>
			<rect x="138" y="184" fill="#424242" width="64" height="8"/>
		</g>
		<g>
			<path fill="#424242" d="M232,236H49V18h183V236z M56,228h169V26H56V228z"/>
		</g>
		<g>
			<polygon fill="#424242" points="48.5,233.8 11.3,117.3 50.4,117.6 50.3,125.2 21.7,125 55.8,231.5 			"/>
		</g>
	</g>
</g>
</svg>
