<?xml version="1.0" encoding="iso-8859-1"?>
<!-- Generator: Adobe Illustrator 19.0.0, SVG Export Plug-In . SVG Version: 6.00 Build 0)  -->
<svg version="1.1" id="Capa_1" xmlns="http://www.w3.org/2000/svg" xmlns:xlink="http://www.w3.org/1999/xlink" x="0px" y="0px"
	 viewBox="0 0 60 60" style="enable-background:new 0 0 60 60;" xml:space="preserve">
<g>
	<path d="M1,19c0.552,0,1-0.448,1-1V2h16c0.552,0,1-0.448,1-1s-0.448-1-1-1H0v18C0,18.552,0.448,19,1,19z"/>
	<path d="M59,42c-0.553,0-1,0.448-1,1v15H43c-0.552,0-1,0.448-1,1s0.448,1,1,1h17V43C60,42.448,59.553,42,59,42z"/>
	<path d="M43,0c-0.552,0-1,0.448-1,1s0.448,1,1,1h15v16c0,0.552,0.447,1,1,1s1-0.448,1-1V0H43z"/>
	<path d="M18,58H2V43c0-0.552-0.448-1-1-1s-1,0.448-1,1v17h18c0.552,0,1-0.448,1-1S18.552,58,18,58z"/>
	<path fill="#971A26" d="M44,31c0.552,0,1-0.448,1-1s-0.448-1-1-1H31V16c0-0.552-0.448-1-1-1s-1,0.448-1,1v13H16c-0.552,0-1,0.448-1,1s0.448,1,1,1
		h13v13c0,0.552,0.448,1,1,1s1-0.448,1-1V31H44z"/>
</g>
</svg>
