<?xml version="1.0" encoding="utf-8"?>
<!-- Generator: Adobe Illustrator 18.0.0, SVG Export Plug-In . SVG Version: 6.00 Build 0)  -->
<!DOCTYPE svg PUBLIC "-//W3C//DTD SVG 1.1//EN" "http://www.w3.org/Graphics/SVG/1.1/DTD/svg11.dtd">
<svg version="1.1" id="Layer_1" xmlns="http://www.w3.org/2000/svg" xmlns:xlink="http://www.w3.org/1999/xlink" x="0px" y="0px"
	 viewBox="0 0 40 40" enable-background="new 0 0 40 40" xml:space="preserve">
<path d="M39,1v38H1V1H39 M40,0H0v40h40V0L40,0z"/>
<g>
	<g>
		<g>
			<path d="M25.9,19.1H18v2.6h4.8c-0.7,2.3-2.8,3.9-5.4,3.9c-3.1,0-5.6-2.5-5.6-5.6c0-3.1,2.5-5.6,5.6-5.6
				c1.6,0,3,0.6,4,1.7l1.9-2.1c-1.5-1.5-3.6-2.4-5.9-2.4C12.8,11.6,9,15.3,9,20s3.8,8.4,8.4,8.4c4.1,0,7.7-2.9,8.4-6.8L25.9,19.1
				L25.9,19.1L25.9,19.1z"/>
			<polygon points="31,19.1 29.4,19.1 29.4,17.4 28,17.4 28,19.1 26.4,19.1 26.4,20.4 28,20.4 28,22.1 29.4,22.1 
				29.4,20.4 31,20.4 			"/>
		</g>
	</g>
</g>
</svg>
