<!-- Generator: Adobe Illustrator 18.1.1, SVG Export Plug-In  -->
<svg version="1.1"
   xmlns="http://www.w3.org/2000/svg" xmlns:xlink="http://www.w3.org/1999/xlink" xmlns:a="http://ns.adobe.com/AdobeSVGViewerExtensions/3.0/"
   x="0px" y="0px" width="42px" height="42px" viewBox="0 0 41 41" enable-background="new 0 0 41 41" xml:space="preserve">
<defs>
</defs>
<g opacity="0.5">
  <g id="_x37_7_Essential_Icons_1_">
    <path d="M24.9,22.3c-0.9,0-1.8,0.4-2.3,1.1l-4.7-2.7c0.3-0.7,0.3-1.5,0-2.2l4.7-2.7
      c0.5,0.7,1.4,1.1,2.3,1.1c1.6,0,2.9-1.3,2.9-2.9s-1.3-2.9-2.9-2.9c-1.6,0-2.9,1.3-2.9,2.9c0,0.4,0.1,0.8,0.2,1.1l-4.7,2.7
      c-0.5-0.7-1.4-1.1-2.3-1.1c-1.6,0-2.9,1.3-2.9,2.9s1.3,2.9,2.9,2.9c0.9,0,1.8-0.4,2.3-1.1l4.7,2.7c-0.1,0.3-0.2,0.7-0.2,1.1
      c0,1.6,1.3,2.9,2.9,2.9c1.6,0,2.9-1.3,2.9-2.9C27.8,23.6,26.5,22.3,24.9,22.3z M24.9,11.9c1.2,0,2.1,0.9,2.1,2.1s-0.9,2.1-2.1,2.1
      c-1.2,0-2.1-0.9-2.1-2.1S23.7,11.9,24.9,11.9z M15.3,21.7c-1.2,0-2.1-0.9-2.1-2.1s0.9-2.1,2.1-2.1s2.1,0.9,2.1,2.1
      S16.4,21.7,15.3,21.7z M24.9,27.3c-1.2,0-2.1-0.9-2.1-2.1c0-1.2,0.9-2.1,2.1-2.1c1.2,0,2.1,0.9,2.1,2.1
      C27,26.4,26.1,27.3,24.9,27.3z"/>
  </g>
  <rect x="0.5" y="0.5" stroke-miterlimit="10" width="40" height="40"/>
</g>
</svg>
