<?xml version="1.0" encoding="utf-8"?>
<!-- Generator: Adobe Illustrator 18.0.0, SVG Export Plug-In . SVG Version: 6.00 Build 0)  -->
<!DOCTYPE svg PUBLIC "-//W3C//DTD SVG 1.1//EN" "http://www.w3.org/Graphics/SVG/1.1/DTD/svg11.dtd">
<svg version="1.1" id="Layer_1" xmlns="http://www.w3.org/2000/svg" xmlns:xlink="http://www.w3.org/1999/xlink" x="0px" y="0px"
	 viewBox="0 0 40 40" enable-background="new 0 0 40 40" xml:space="preserve">
<path d="M39,1v38H1V1H39 M40,0H0v40h40V0L40,0z"/>
<g>
	<path d="M24.6,10.8l-2.3,0c-2.7,0-4.3,1.8-4.3,4.6V17h-2.6c-0.2,0-0.4,0.6-0.4,0.8v3c0,0.2,0.2,0.2,0.4,0.2H18v7.9
		c0,0.2,0,0.1,0.2,0.1h3.1c0.2,0,0.7,0.1,0.7-0.1V21h2.5c0.2,0,0.4-0.1,0.4-0.3l0-3c0-0.1,0-0.4-0.1-0.4S24.6,17,24.5,17H22v-1.4
		c0-0.9-0.1-1.6,1-1.6h1.6c0.2,0,0.4,0.2,0.4,0v-2.8C25,10.9,24.8,10.8,24.6,10.8z"/>
</g>
</svg>
