<?xml version="1.0" encoding="utf-8"?>
<!-- Generator: Adobe Illustrator 18.0.0, SVG Export Plug-In . SVG Version: 6.00 Build 0)  -->
<!DOCTYPE svg PUBLIC "-//W3C//DTD SVG 1.1//EN" "http://www.w3.org/Graphics/SVG/1.1/DTD/svg11.dtd">
<svg version="1.1" id="Layer_1" xmlns="http://www.w3.org/2000/svg" xmlns:xlink="http://www.w3.org/1999/xlink" x="0px" y="0px"
	 viewBox="0 0 40 40" enable-background="new 0 0 40 40" xml:space="preserve">
<g>
	<g id="_x37_7_Essential_Icons_58_">
		<path id="Share_1_" d="M24.4,21.8c-0.9,0-1.8,0.4-2.3,1.1l-4.7-2.7c0.3-0.7,0.3-1.5,0-2.2l4.7-2.7
			c0.5,0.7,1.4,1.1,2.3,1.1c1.6,0,2.9-1.3,2.9-2.9s-1.3-2.9-2.9-2.9c-1.6,0-2.9,1.3-2.9,2.9c0,0.4,0.1,0.8,0.2,1.1L17,17.3
			c-0.5-0.7-1.4-1.1-2.3-1.1c-1.6,0-2.9,1.3-2.9,2.9s1.3,2.9,2.9,2.9c0.9,0,1.8-0.4,2.3-1.1l4.7,2.7c-0.1,0.3-0.2,0.7-0.2,1.1
			c0,1.6,1.3,2.9,2.9,2.9c1.6,0,2.9-1.3,2.9-2.9C27.3,23.1,26,21.8,24.4,21.8z M24.4,11.4c1.2,0,2.1,0.9,2.1,2.1s-0.9,2.1-2.1,2.1
			c-1.2,0-2.1-0.9-2.1-2.1S23.2,11.4,24.4,11.4z M14.8,21.2c-1.2,0-2.1-0.9-2.1-2.1s0.9-2.1,2.1-2.1s2.1,0.9,2.1,2.1
			S15.9,21.2,14.8,21.2z M24.4,26.8c-1.2,0-2.1-0.9-2.1-2.1c0-1.2,0.9-2.1,2.1-2.1c1.2,0,2.1,0.9,2.1,2.1
			C26.5,25.9,25.6,26.8,24.4,26.8z"/>
	</g>
	<path d="M39,1v38H1V1H39 M40,0H0v40h40V0L40,0z"/>
</g>
</svg>
