<!-- Generator: Adobe Illustrator 18.1.1, SVG Export Plug-In  -->
<svg version="1.1"
   xmlns="http://www.w3.org/2000/svg" xmlns:xlink="http://www.w3.org/1999/xlink" xmlns:a="http://ns.adobe.com/AdobeSVGViewerExtensions/3.0/"
   x="0px" y="0px" viewBox="0 0 35.4 37.6" enable-background="new 0 0 35.4 37.6"
   xml:space="preserve">
<defs>
</defs>
<g>
  <g>
    <path d="M22.6,23.1c0,0-0.1,0-0.1,0.1c2.2,1.1,5.7,2.2,9.1,2.3c0.9-1.7,1.8-3.4,2.4-5.2c-3.1,1.4-6.5,1.9-10.1,2.1
      C23.4,22.6,23,22.9,22.6,23.1z"/>
    <path d="M25.8,20.9c3.2-0.5,6.8-1.8,8.8-3.1c0.5-2.2,0.8-4.4,0.8-6.7c0-1,0-1.9-0.1-2.9
      C33.3,13.3,30,17.7,25.8,20.9z"/>
    <path d="M31,26.3c-3.8,0-7.4-0.7-10.7-2c-2-0.8-3.9-1.8-5.6-2.9c0,0,0,0,0,0C7.6,16.6,2.8,8.9,1.9,0
      C0.7,3.2,0,6.7,0,10.4c0,0.5,0,1,0,1.5c0,0.4,0,0.7,0.1,1.1c0.1,1.2,0.3,2.3,0.5,3.5c0.1,0.3,0,0.2,0.1,0.3C2.7,19,7,21.6,8,22.4
      c-1.1-0.2-5.1-2.2-6.7-3.2c0.9,2.9,2.3,5.8,4.1,8.3c1.3,0.6,3.9,1.8,4.8,2.1c-1.2-0.1-2.8-0.6-3.9-0.9c3.1,3.8,7,6.8,11.6,8.7
      c0.2,0.1,0.3,0.1,0.5,0.2c0.9-0.4,1.7-0.8,2.5-1.3c4.1-2.4,7.6-5.9,10.1-10C31.1,26.3,31,26.3,31,26.3z"/>
  </g>
</g>
</svg>
